<svg id="visual" viewBox="0 0 900 300" width="900" height="300" xmlns="http://www.w3.org/2000/svg" xmlns:xlink="http://www.w3.org/1999/xlink" version="1.1"><rect x="0" y="0" width="900" height="300" fill="#ffffff"></rect><path d="M0 229L37.5 230.8C75 232.7 150 236.3 225 240.5C300 244.7 375 249.3 450 247C525 244.7 600 235.3 675 229.2C750 223 825 220 862.5 218.5L900 217L900 0L862.5 0C825 0 750 0 675 0C600 0 525 0 450 0C375 0 300 0 225 0C150 0 75 0 37.5 0L0 0Z" fill="#ffeb00"></path><path d="M0 165L37.5 172C75 179 150 193 225 201.5C300 210 375 213 450 204.7C525 196.3 600 176.7 675 171.3C750 166 825 175 862.5 179.5L900 184L900 0L862.5 0C825 0 750 0 675 0C600 0 525 0 450 0C375 0 300 0 225 0C150 0 75 0 37.5 0L0 0Z" fill="#fff380"></path><path d="M0 120L37.5 124.7C75 129.3 150 138.7 225 142.7C300 146.7 375 145.3 450 146.2C525 147 600 150 675 147C750 144 825 135 862.5 130.5L900 126L900 0L862.5 0C825 0 750 0 675 0C600 0 525 0 450 0C375 0 300 0 225 0C150 0 75 0 37.5 0L0 0Z" fill="#fffacc"></path><path d="M0 122L37.5 119.8C75 117.7 150 113.3 225 108.3C300 103.3 375 97.7 450 103.2C525 108.7 600 125.3 675 126C750 126.7 825 111.3 862.5 103.7L900 96L900 0L862.5 0C825 0 750 0 675 0C600 0 525 0 450 0C375 0 300 0 225 0C150 0 75 0 37.5 0L0 0Z" fill="#fffacc"></path><path d="M0 59L37.5 63.2C75 67.3 150 75.7 225 75.8C300 76 375 68 450 67.8C525 67.7 600 75.3 675 78.2C750 81 825 79 862.5 78L900 77L900 0L862.5 0C825 0 750 0 675 0C600 0 525 0 450 0C375 0 300 0 225 0C150 0 75 0 37.5 0L0 0Z" fill="#fff380"></path><path d="M0 45L37.5 47C75 49 150 53 225 52C300 51 375 45 450 44.8C525 44.7 600 50.3 675 49.2C750 48 825 40 862.5 36L900 32L900 0L862.5 0C825 0 750 0 675 0C600 0 525 0 450 0C375 0 300 0 225 0C150 0 75 0 37.5 0L0 0Z" fill="#ffeb00"></path></svg>