<svg id="visual" viewBox="0 0 900 400" width="900" height="400" xmlns="http://www.w3.org/2000/svg" xmlns:xlink="http://www.w3.org/1999/xlink" version="1.1"><path d="M0 21L21.5 24.3C43 27.7 86 34.3 128.8 39C171.7 43.7 214.3 46.3 257.2 41C300 35.7 343 22.3 385.8 18.3C428.7 14.3 471.3 19.7 514.2 34.3C557 49 600 73 642.8 81C685.7 89 728.3 81 771.2 73C814 65 857 57 878.5 53L900 49L900 0L878.5 0C857 0 814 0 771.2 0C728.3 0 685.7 0 642.8 0C600 0 557 0 514.2 0C471.3 0 428.7 0 385.8 0C343 0 300 0 257.2 0C214.3 0 171.7 0 128.8 0C86 0 43 0 21.5 0L0 0Z" fill="#ffffff"></path><path d="M0 41L21.5 45C43 49 86 57 128.8 60.3C171.7 63.7 214.3 62.3 257.2 63.7C300 65 343 69 385.8 84.3C428.7 99.7 471.3 126.3 514.2 139.7C557 153 600 153 642.8 153C685.7 153 728.3 153 771.2 138.3C814 123.7 857 94.3 878.5 79.7L900 65L900 47L878.5 51C857 55 814 63 771.2 71C728.3 79 685.7 87 642.8 79C600 71 557 47 514.2 32.3C471.3 17.7 428.7 12.3 385.8 16.3C343 20.3 300 33.7 257.2 39C214.3 44.3 171.7 41.7 128.8 37C86 32.3 43 25.7 21.5 22.3L0 19Z" fill="#fff49b"></path><path d="M0 97L21.5 93.7C43 90.3 86 83.7 128.8 81C171.7 78.3 214.3 79.7 257.2 91C300 102.3 343 123.7 385.8 145C428.7 166.3 471.3 187.7 514.2 199C557 210.3 600 211.7 642.8 215.7C685.7 219.7 728.3 226.3 771.2 209C814 191.7 857 150.3 878.5 129.7L900 109L900 63L878.5 77.7C857 92.3 814 121.7 771.2 136.3C728.3 151 685.7 151 642.8 151C600 151 557 151 514.2 137.7C471.3 124.3 428.7 97.7 385.8 82.3C343 67 300 63 257.2 61.7C214.3 60.3 171.7 61.7 128.8 58.3C86 55 43 47 21.5 43L0 39Z" fill="#ffeb00"></path><path d="M0 369L21.5 347.7C43 326.3 86 283.7 128.8 239.7C171.7 195.7 214.3 150.3 257.2 149C300 147.7 343 190.3 385.8 208.3C428.7 226.3 471.3 219.7 514.2 234.3C557 249 600 285 642.8 303C685.7 321 728.3 321 771.2 309.7C814 298.3 857 275.7 878.5 264.3L900 253L900 107L878.5 127.7C857 148.3 814 189.7 771.2 207C728.3 224.3 685.7 217.7 642.8 213.7C600 209.7 557 208.3 514.2 197C471.3 185.7 428.7 164.3 385.8 143C343 121.7 300 100.3 257.2 89C214.3 77.7 171.7 76.3 128.8 79C86 81.7 43 88.3 21.5 91.7L0 95Z" fill="#ffeb00"></path><path d="M0 397L21.5 378.3C43 359.7 86 322.3 128.8 282.3C171.7 242.3 214.3 199.7 257.2 197.7C300 195.7 343 234.3 385.8 245.7C428.7 257 471.3 241 514.2 249.7C557 258.3 600 291.7 642.8 315C685.7 338.3 728.3 351.7 771.2 351.7C814 351.7 857 338.3 878.5 331.7L900 325L900 251L878.5 262.3C857 273.7 814 296.3 771.2 307.7C728.3 319 685.7 319 642.8 301C600 283 557 247 514.2 232.3C471.3 217.7 428.7 224.3 385.8 206.3C343 188.3 300 145.7 257.2 147C214.3 148.3 171.7 193.7 128.8 237.7C86 281.7 43 324.3 21.5 345.7L0 367Z" fill="#fff49b"></path><path d="M0 401L21.5 401C43 401 86 401 128.8 401C171.7 401 214.3 401 257.2 401C300 401 343 401 385.8 401C428.7 401 471.3 401 514.2 401C557 401 600 401 642.8 401C685.7 401 728.3 401 771.2 401C814 401 857 401 878.5 401L900 401L900 323L878.5 329.7C857 336.3 814 349.7 771.2 349.7C728.3 349.7 685.7 336.3 642.8 313C600 289.7 557 256.3 514.2 247.7C471.3 239 428.7 255 385.8 243.7C343 232.3 300 193.7 257.2 195.7C214.3 197.7 171.7 240.3 128.8 280.3C86 320.3 43 357.7 21.5 376.3L0 395Z" fill="#ffffff"></path></svg>