<svg id="visual" viewBox="0 0 900 300" width="900" height="300" xmlns="http://www.w3.org/2000/svg" xmlns:xlink="http://www.w3.org/1999/xlink" version="1.1"><rect x="0" y="0" width="900" height="300" fill="#ffffff"></rect><path d="M0 47L37.5 63.7C75 80.3 150 113.7 225 141.7C300 169.7 375 192.3 450 209.7C525 227 600 239 675 241.5C750 244 825 237 862.5 233.5L900 230L900 301L862.5 301C825 301 750 301 675 301C600 301 525 301 450 301C375 301 300 301 225 301C150 301 75 301 37.5 301L0 301Z" fill="#0c0c0c" stroke-linecap="round" stroke-linejoin="miter"></path></svg>